# xmcd CD database file
#
# Track frame offsets:
#	150
#	27155
#	51511
#	72795
#	110069
#	136630
#	170729
#	190963
#	221250
#
# Disc length: 3260 seconds
#
# Revision: 0
# Processed by: cddbd v1.5.2PL0 Copyright (c) Steve Scherf et al.
# Submitted via: CDex 1.51
#
DISCID=810cba09
DTITLE=Gianni Coscia and Renato Sellani - Galleria del Corso
DYEAR=2004
DGENRE=Jazz
TTITLE0=Non dimenticar le mie parole
TTITLE1=Le foglie morte
TTITLE2=Dinah
TTITLE3=Polvere di stelle
TTITLE4=Dolce Giorgia Marrone
TTITLE5=My funny Valentine
TTITLE6=Amore baciami
TTITLE7=Da te era bello restar
TTITLE8=Laura
EXTD=YEAR: 2004
EXTT0=
EXTT1=
EXTT2=
EXTT3=
EXTT4=
EXTT5=
EXTT6=
EXTT7=
EXTT8=
PLAYORDER=
